<?xml version="1.0" encoding="UTF-8" standalone="no"?>
<!-- Created with Inkscape (http://www.inkscape.org/) -->

<svg
   xmlns:dc="http://purl.org/dc/elements/1.1/"
   xmlns:cc="http://creativecommons.org/ns#"
   xmlns:rdf="http://www.w3.org/1999/02/22-rdf-syntax-ns#"
   xmlns:svg="http://www.w3.org/2000/svg"
   xmlns="http://www.w3.org/2000/svg"
   xmlns:sodipodi="http://sodipodi.sourceforge.net/DTD/sodipodi-0.dtd"
   xmlns:inkscape="http://www.inkscape.org/namespaces/inkscape"
   width="210mm"
   height="297mm"
   viewBox="0 0 210 297"
   version="1.1"
   id="svg8"
   inkscape:version="0.92.0 r15299"
   sodipodi:docname="Flat Sunset Background.svg">
  <defs
     id="defs2" />
  <sodipodi:namedview
     id="base"
     pagecolor="#ffffff"
     bordercolor="#666666"
     borderopacity="1.0"
     inkscape:pageopacity="0.0"
     inkscape:pageshadow="2"
     inkscape:zoom="0.7"
     inkscape:cx="-734.17278"
     inkscape:cy="499.51682"
     inkscape:document-units="px"
     inkscape:current-layer="layer2"
     showgrid="false"
     showborder="false"
     inkscape:snap-global="false"
     inkscape:window-width="1920"
     inkscape:window-height="1017"
     inkscape:window-x="1912"
     inkscape:window-y="-8"
     inkscape:window-maximized="1" />
  <metadata
     id="metadata5">
    <rdf:RDF>
      <cc:Work
         rdf:about="">
        <dc:format>image/svg+xml</dc:format>
        <dc:type
           rdf:resource="http://purl.org/dc/dcmitype/StillImage" />
        <dc:title></dc:title>
      </cc:Work>
    </rdf:RDF>
  </metadata>
  <g
     inkscape:label="Layer 1"
     inkscape:groupmode="layer"
     id="layer1"
     sodipodi:insensitive="true">
    <rect
       style="opacity:0.36824329;fill:#b3b3b3;fill-opacity:1;stroke:none;stroke-width:3.17499995;stroke-linecap:butt;stroke-linejoin:miter;stroke-miterlimit:4;stroke-dasharray:none;stroke-dashoffset:29.54388428;stroke-opacity:1;paint-order:markers stroke fill"
       id="rect4485"
       width="836.83929"
       height="414.26187"
       x="-491.36902"
       y="-74.928574" />
  </g>
  <g
     inkscape:groupmode="layer"
     id="layer2"
     inkscape:label="Layer 2">
    <rect
       style="opacity:1;fill:#fff5e0;fill-opacity:1;stroke:none;stroke-width:2.08394361;stroke-linecap:butt;stroke-linejoin:miter;stroke-miterlimit:4;stroke-dasharray:none;stroke-dashoffset:29.54388428;stroke-opacity:1;paint-order:markers stroke fill"
       id="rect4488"
       width="338.66666"
       height="190.5"
       x="-373.44049"
       y="86.089287" />
    <g
       id="g4632"
       transform="matrix(0.14081126,-0.00574351,0.00574351,0.14081126,-83.1485,117.25264)">
      <ellipse
         ry="65.20089"
         rx="45.168152"
         cy="211.01042"
         cx="65.20089"
         id="ellipse4620"
         style="opacity:1;fill:#f2bda2;fill-opacity:1;stroke:none;stroke-width:3.17499995;stroke-linecap:butt;stroke-linejoin:miter;stroke-miterlimit:4;stroke-dasharray:none;stroke-dashoffset:29.54388428;stroke-opacity:1;paint-order:markers stroke fill" />
      <path
         transform="matrix(0.18355233,0,0,2.5464981,30.227832,-173.12803)"
         inkscape:transform-center-y="-21.990907"
         d="m 218.14724,185.75958 -59.83018,0 29.91509,-51.81445 z"
         inkscape:randomized="0"
         inkscape:rounded="0"
         inkscape:flatsided="true"
         sodipodi:arg2="1.5707963"
         sodipodi:arg1="0.52359878"
         sodipodi:r2="17.271484"
         sodipodi:r1="34.542969"
         sodipodi:cy="168.4881"
         sodipodi:cx="188.23215"
         sodipodi:sides="3"
         id="path4622"
         style="opacity:1;fill:#e7726a;fill-opacity:1;stroke:none;stroke-width:3.17499995;stroke-linecap:butt;stroke-linejoin:miter;stroke-miterlimit:4;stroke-dasharray:none;stroke-dashoffset:29.54388428;stroke-opacity:1;paint-order:markers stroke fill"
         sodipodi:type="star" />
      <path
         inkscape:transform-center-x="-6.0531838"
         sodipodi:type="star"
         style="opacity:1;fill:#e7726a;fill-opacity:1;stroke:none;stroke-width:3.17499995;stroke-linecap:butt;stroke-linejoin:miter;stroke-miterlimit:4;stroke-dasharray:none;stroke-dashoffset:29.54388428;stroke-opacity:1;paint-order:markers stroke fill"
         id="path4624"
         sodipodi:sides="3"
         sodipodi:cx="188.23215"
         sodipodi:cy="168.4881"
         sodipodi:r1="34.542969"
         sodipodi:r2="17.271484"
         sodipodi:arg1="0.52359878"
         sodipodi:arg2="1.5707963"
         inkscape:flatsided="true"
         inkscape:rounded="0"
         inkscape:randomized="0"
         d="m 218.14724,185.75958 -59.83018,0 29.91509,-51.81445 z"
         inkscape:transform-center-y="-4.832761"
         transform="matrix(0.04738414,0.0564401,-0.78301704,0.65737996,200.66604,124.50279)" />
      <path
         transform="matrix(0.03235479,0.03853837,-0.53465883,0.44887146,158.42244,132.93362)"
         inkscape:transform-center-y="-3.2998964"
         d="m 218.14724,185.75958 -59.83018,0 29.91509,-51.81445 z"
         inkscape:randomized="0"
         inkscape:rounded="0"
         inkscape:flatsided="true"
         sodipodi:arg2="1.5707963"
         sodipodi:arg1="0.52359878"
         sodipodi:r2="17.271484"
         sodipodi:r1="34.542969"
         sodipodi:cy="168.4881"
         sodipodi:cx="188.23215"
         sodipodi:sides="3"
         id="path4626"
         style="opacity:1;fill:#e7726a;fill-opacity:1;stroke:none;stroke-width:3.17499995;stroke-linecap:butt;stroke-linejoin:miter;stroke-miterlimit:4;stroke-dasharray:none;stroke-dashoffset:29.54388428;stroke-opacity:1;paint-order:markers stroke fill"
         sodipodi:type="star"
         inkscape:transform-center-x="-4.1332331" />
      <path
         inkscape:transform-center-x="4.1332331"
         sodipodi:type="star"
         style="opacity:1;fill:#e7726a;fill-opacity:1;stroke:none;stroke-width:3.17499995;stroke-linecap:butt;stroke-linejoin:miter;stroke-miterlimit:4;stroke-dasharray:none;stroke-dashoffset:29.54388428;stroke-opacity:1;paint-order:markers stroke fill"
         id="path4628"
         sodipodi:sides="3"
         sodipodi:cx="188.23215"
         sodipodi:cy="168.4881"
         sodipodi:r1="34.542969"
         sodipodi:r2="17.271484"
         sodipodi:arg1="0.52359878"
         sodipodi:arg2="1.5707963"
         inkscape:flatsided="true"
         inkscape:rounded="0"
         inkscape:randomized="0"
         d="m 218.14724,185.75958 -59.83018,0 29.91509,-51.81445 z"
         inkscape:transform-center-y="-3.2998964"
         transform="matrix(-0.03235479,0.03853837,0.53465883,0.44887146,-27.945305,111.95594)" />
      <path
         transform="matrix(-0.04738414,0.0564401,0.78301704,0.65737996,-71.800833,105.98196)"
         inkscape:transform-center-y="-4.832761"
         d="m 218.14724,185.75958 -59.83018,0 29.91509,-51.81445 z"
         inkscape:randomized="0"
         inkscape:rounded="0"
         inkscape:flatsided="true"
         sodipodi:arg2="1.5707963"
         sodipodi:arg1="0.52359878"
         sodipodi:r2="17.271484"
         sodipodi:r1="34.542969"
         sodipodi:cy="168.4881"
         sodipodi:cx="188.23215"
         sodipodi:sides="3"
         id="path4630"
         style="opacity:1;fill:#e7726a;fill-opacity:1;stroke:none;stroke-width:3.17499995;stroke-linecap:butt;stroke-linejoin:miter;stroke-miterlimit:4;stroke-dasharray:none;stroke-dashoffset:29.54388428;stroke-opacity:1;paint-order:markers stroke fill"
         sodipodi:type="star"
         inkscape:transform-center-x="6.0531838" />
    </g>
    <g
       id="g4604"
       transform="matrix(0.18656499,0,0,0.18656499,-284.65016,102.03587)">
      <ellipse
         ry="65.20089"
         rx="45.168152"
         cy="211.01042"
         cx="65.20089"
         id="path4538"
         style="opacity:1;fill:#f2bda2;fill-opacity:1;stroke:none;stroke-width:3.17499995;stroke-linecap:butt;stroke-linejoin:miter;stroke-miterlimit:4;stroke-dasharray:none;stroke-dashoffset:29.54388428;stroke-opacity:1;paint-order:markers stroke fill" />
      <path
         transform="matrix(0.18355233,0,0,2.5464981,30.227832,-173.12803)"
         inkscape:transform-center-y="-21.990907"
         d="m 218.14724,185.75958 -59.83018,0 29.91509,-51.81445 z"
         inkscape:randomized="0"
         inkscape:rounded="0"
         inkscape:flatsided="true"
         sodipodi:arg2="1.5707963"
         sodipodi:arg1="0.52359878"
         sodipodi:r2="17.271484"
         sodipodi:r1="34.542969"
         sodipodi:cy="168.4881"
         sodipodi:cx="188.23215"
         sodipodi:sides="3"
         id="path4540"
         style="opacity:1;fill:#e7726a;fill-opacity:1;stroke:none;stroke-width:3.17499995;stroke-linecap:butt;stroke-linejoin:miter;stroke-miterlimit:4;stroke-dasharray:none;stroke-dashoffset:29.54388428;stroke-opacity:1;paint-order:markers stroke fill"
         sodipodi:type="star" />
      <path
         inkscape:transform-center-x="-6.0531838"
         sodipodi:type="star"
         style="opacity:1;fill:#e7726a;fill-opacity:1;stroke:none;stroke-width:3.17499995;stroke-linecap:butt;stroke-linejoin:miter;stroke-miterlimit:4;stroke-dasharray:none;stroke-dashoffset:29.54388428;stroke-opacity:1;paint-order:markers stroke fill"
         id="path4542"
         sodipodi:sides="3"
         sodipodi:cx="188.23215"
         sodipodi:cy="168.4881"
         sodipodi:r1="34.542969"
         sodipodi:r2="17.271484"
         sodipodi:arg1="0.52359878"
         sodipodi:arg2="1.5707963"
         inkscape:flatsided="true"
         inkscape:rounded="0"
         inkscape:randomized="0"
         d="m 218.14724,185.75958 -59.83018,0 29.91509,-51.81445 z"
         inkscape:transform-center-y="-4.832761"
         transform="matrix(0.04738414,0.0564401,-0.78301704,0.65737996,200.66604,124.50279)" />
      <path
         transform="matrix(0.03235479,0.03853837,-0.53465883,0.44887146,158.42244,132.93362)"
         inkscape:transform-center-y="-3.2998964"
         d="m 218.14724,185.75958 -59.83018,0 29.91509,-51.81445 z"
         inkscape:randomized="0"
         inkscape:rounded="0"
         inkscape:flatsided="true"
         sodipodi:arg2="1.5707963"
         sodipodi:arg1="0.52359878"
         sodipodi:r2="17.271484"
         sodipodi:r1="34.542969"
         sodipodi:cy="168.4881"
         sodipodi:cx="188.23215"
         sodipodi:sides="3"
         id="path4544"
         style="opacity:1;fill:#e7726a;fill-opacity:1;stroke:none;stroke-width:3.17499995;stroke-linecap:butt;stroke-linejoin:miter;stroke-miterlimit:4;stroke-dasharray:none;stroke-dashoffset:29.54388428;stroke-opacity:1;paint-order:markers stroke fill"
         sodipodi:type="star"
         inkscape:transform-center-x="-4.1332331" />
      <path
         inkscape:transform-center-x="4.1332331"
         sodipodi:type="star"
         style="opacity:1;fill:#e7726a;fill-opacity:1;stroke:none;stroke-width:3.17499995;stroke-linecap:butt;stroke-linejoin:miter;stroke-miterlimit:4;stroke-dasharray:none;stroke-dashoffset:29.54388428;stroke-opacity:1;paint-order:markers stroke fill"
         id="path4546"
         sodipodi:sides="3"
         sodipodi:cx="188.23215"
         sodipodi:cy="168.4881"
         sodipodi:r1="34.542969"
         sodipodi:r2="17.271484"
         sodipodi:arg1="0.52359878"
         sodipodi:arg2="1.5707963"
         inkscape:flatsided="true"
         inkscape:rounded="0"
         inkscape:randomized="0"
         d="m 218.14724,185.75958 -59.83018,0 29.91509,-51.81445 z"
         inkscape:transform-center-y="-3.2998964"
         transform="matrix(-0.03235479,0.03853837,0.53465883,0.44887146,-27.945305,111.95594)" />
      <path
         transform="matrix(-0.04738414,0.0564401,0.78301704,0.65737996,-71.800833,105.98196)"
         inkscape:transform-center-y="-4.832761"
         d="m 218.14724,185.75958 -59.83018,0 29.91509,-51.81445 z"
         inkscape:randomized="0"
         inkscape:rounded="0"
         inkscape:flatsided="true"
         sodipodi:arg2="1.5707963"
         sodipodi:arg1="0.52359878"
         sodipodi:r2="17.271484"
         sodipodi:r1="34.542969"
         sodipodi:cy="168.4881"
         sodipodi:cx="188.23215"
         sodipodi:sides="3"
         id="path4548"
         style="opacity:1;fill:#e7726a;fill-opacity:1;stroke:none;stroke-width:3.17499995;stroke-linecap:butt;stroke-linejoin:miter;stroke-miterlimit:4;stroke-dasharray:none;stroke-dashoffset:29.54388428;stroke-opacity:1;paint-order:markers stroke fill"
         sodipodi:type="star"
         inkscape:transform-center-x="6.0531838" />
    </g>
    <path
       style="fill:#eeab8a;fill-opacity:0.21105528;stroke:none;stroke-width:0.99999994px;stroke-linecap:butt;stroke-linejoin:miter;stroke-opacity:1"
       d="M -837.14258,502.51953 C -952.82751,499.29446 -934.30377,774.01425 -1050,776.80469 c -117.831,2.84193 -112.4282,-276.88214 -230,-268.57031 -81.3583,5.75169 -131.4277,206.39062 -131.4277,206.39062 v 330.752 H -131.42773 V 589.66016 c 0,0 -82.34184,157.88851 -155.71485,155.71679 -91.03346,-2.69444 -90.47886,-209.00714 -181.42969,-204.28515 -99.50703,5.16621 -74.64825,243.76659 -174.28515,242.85742 -113.98814,-1.04012 -80.33655,-278.25302 -194.28516,-281.42969 z"
       id="path4510"
       inkscape:connector-curvature="0"
       sodipodi:nodetypes="aaaccccaaaa"
       transform="scale(0.26458333)" />
    <g
       transform="matrix(0.13755768,0.03063795,-0.03063795,0.13755768,-169.44772,124.86594)"
       id="g4618">
      <ellipse
         style="opacity:1;fill:#f2bda2;fill-opacity:1;stroke:none;stroke-width:3.17499995;stroke-linecap:butt;stroke-linejoin:miter;stroke-miterlimit:4;stroke-dasharray:none;stroke-dashoffset:29.54388428;stroke-opacity:1;paint-order:markers stroke fill"
         id="ellipse4606"
         cx="65.20089"
         cy="211.01042"
         rx="45.168152"
         ry="65.20089" />
      <path
         sodipodi:type="star"
         style="opacity:1;fill:#e7726a;fill-opacity:1;stroke:none;stroke-width:3.17499995;stroke-linecap:butt;stroke-linejoin:miter;stroke-miterlimit:4;stroke-dasharray:none;stroke-dashoffset:29.54388428;stroke-opacity:1;paint-order:markers stroke fill"
         id="path4608"
         sodipodi:sides="3"
         sodipodi:cx="188.23215"
         sodipodi:cy="168.4881"
         sodipodi:r1="34.542969"
         sodipodi:r2="17.271484"
         sodipodi:arg1="0.52359878"
         sodipodi:arg2="1.5707963"
         inkscape:flatsided="true"
         inkscape:rounded="0"
         inkscape:randomized="0"
         d="m 218.14724,185.75958 -59.83018,0 29.91509,-51.81445 z"
         inkscape:transform-center-y="-21.990907"
         transform="matrix(0.18355233,0,0,2.5464981,30.227832,-173.12803)" />
      <path
         transform="matrix(0.04738414,0.0564401,-0.78301704,0.65737996,200.66604,124.50279)"
         inkscape:transform-center-y="-4.832761"
         d="m 218.14724,185.75958 -59.83018,0 29.91509,-51.81445 z"
         inkscape:randomized="0"
         inkscape:rounded="0"
         inkscape:flatsided="true"
         sodipodi:arg2="1.5707963"
         sodipodi:arg1="0.52359878"
         sodipodi:r2="17.271484"
         sodipodi:r1="34.542969"
         sodipodi:cy="168.4881"
         sodipodi:cx="188.23215"
         sodipodi:sides="3"
         id="path4610"
         style="opacity:1;fill:#e7726a;fill-opacity:1;stroke:none;stroke-width:3.17499995;stroke-linecap:butt;stroke-linejoin:miter;stroke-miterlimit:4;stroke-dasharray:none;stroke-dashoffset:29.54388428;stroke-opacity:1;paint-order:markers stroke fill"
         sodipodi:type="star"
         inkscape:transform-center-x="-6.0531838" />
      <path
         inkscape:transform-center-x="-4.1332331"
         sodipodi:type="star"
         style="opacity:1;fill:#e7726a;fill-opacity:1;stroke:none;stroke-width:3.17499995;stroke-linecap:butt;stroke-linejoin:miter;stroke-miterlimit:4;stroke-dasharray:none;stroke-dashoffset:29.54388428;stroke-opacity:1;paint-order:markers stroke fill"
         id="path4612"
         sodipodi:sides="3"
         sodipodi:cx="188.23215"
         sodipodi:cy="168.4881"
         sodipodi:r1="34.542969"
         sodipodi:r2="17.271484"
         sodipodi:arg1="0.52359878"
         sodipodi:arg2="1.5707963"
         inkscape:flatsided="true"
         inkscape:rounded="0"
         inkscape:randomized="0"
         d="m 218.14724,185.75958 -59.83018,0 29.91509,-51.81445 z"
         inkscape:transform-center-y="-3.2998964"
         transform="matrix(0.03235479,0.03853837,-0.53465883,0.44887146,158.42244,132.93362)" />
      <path
         transform="matrix(-0.03235479,0.03853837,0.53465883,0.44887146,-27.945305,111.95594)"
         inkscape:transform-center-y="-3.2998964"
         d="m 218.14724,185.75958 -59.83018,0 29.91509,-51.81445 z"
         inkscape:randomized="0"
         inkscape:rounded="0"
         inkscape:flatsided="true"
         sodipodi:arg2="1.5707963"
         sodipodi:arg1="0.52359878"
         sodipodi:r2="17.271484"
         sodipodi:r1="34.542969"
         sodipodi:cy="168.4881"
         sodipodi:cx="188.23215"
         sodipodi:sides="3"
         id="path4614"
         style="opacity:1;fill:#e7726a;fill-opacity:1;stroke:none;stroke-width:3.17499995;stroke-linecap:butt;stroke-linejoin:miter;stroke-miterlimit:4;stroke-dasharray:none;stroke-dashoffset:29.54388428;stroke-opacity:1;paint-order:markers stroke fill"
         sodipodi:type="star"
         inkscape:transform-center-x="4.1332331" />
      <path
         inkscape:transform-center-x="6.0531838"
         sodipodi:type="star"
         style="opacity:1;fill:#e7726a;fill-opacity:1;stroke:none;stroke-width:3.17499995;stroke-linecap:butt;stroke-linejoin:miter;stroke-miterlimit:4;stroke-dasharray:none;stroke-dashoffset:29.54388428;stroke-opacity:1;paint-order:markers stroke fill"
         id="path4616"
         sodipodi:sides="3"
         sodipodi:cx="188.23215"
         sodipodi:cy="168.4881"
         sodipodi:r1="34.542969"
         sodipodi:r2="17.271484"
         sodipodi:arg1="0.52359878"
         sodipodi:arg2="1.5707963"
         inkscape:flatsided="true"
         inkscape:rounded="0"
         inkscape:randomized="0"
         d="m 218.14724,185.75958 -59.83018,0 29.91509,-51.81445 z"
         inkscape:transform-center-y="-4.832761"
         transform="matrix(-0.04738414,0.0564401,0.78301704,0.65737996,-71.800833,105.98196)" />
    </g>
    <g
       transform="matrix(0.18511362,-0.00755055,0.00755055,0.18511362,-236.22293,154.05252)"
       id="g4646">
      <ellipse
         style="opacity:1;fill:#f2bda2;fill-opacity:1;stroke:none;stroke-width:3.17499995;stroke-linecap:butt;stroke-linejoin:miter;stroke-miterlimit:4;stroke-dasharray:none;stroke-dashoffset:29.54388428;stroke-opacity:1;paint-order:markers stroke fill"
         id="ellipse4634"
         cx="65.20089"
         cy="211.01042"
         rx="45.168152"
         ry="65.20089" />
      <path
         sodipodi:type="star"
         style="opacity:1;fill:#e7726a;fill-opacity:1;stroke:none;stroke-width:3.17499995;stroke-linecap:butt;stroke-linejoin:miter;stroke-miterlimit:4;stroke-dasharray:none;stroke-dashoffset:29.54388428;stroke-opacity:1;paint-order:markers stroke fill"
         id="path4636"
         sodipodi:sides="3"
         sodipodi:cx="188.23215"
         sodipodi:cy="168.4881"
         sodipodi:r1="34.542969"
         sodipodi:r2="17.271484"
         sodipodi:arg1="0.52359878"
         sodipodi:arg2="1.5707963"
         inkscape:flatsided="true"
         inkscape:rounded="0"
         inkscape:randomized="0"
         d="m 218.14724,185.75958 -59.83018,0 29.91509,-51.81445 z"
         inkscape:transform-center-y="-21.990907"
         transform="matrix(0.18355233,0,0,2.5464981,30.227832,-173.12803)" />
      <path
         transform="matrix(0.04738414,0.0564401,-0.78301704,0.65737996,200.66604,124.50279)"
         inkscape:transform-center-y="-4.832761"
         d="m 218.14724,185.75958 -59.83018,0 29.91509,-51.81445 z"
         inkscape:randomized="0"
         inkscape:rounded="0"
         inkscape:flatsided="true"
         sodipodi:arg2="1.5707963"
         sodipodi:arg1="0.52359878"
         sodipodi:r2="17.271484"
         sodipodi:r1="34.542969"
         sodipodi:cy="168.4881"
         sodipodi:cx="188.23215"
         sodipodi:sides="3"
         id="path4638"
         style="opacity:1;fill:#e7726a;fill-opacity:1;stroke:none;stroke-width:3.17499995;stroke-linecap:butt;stroke-linejoin:miter;stroke-miterlimit:4;stroke-dasharray:none;stroke-dashoffset:29.54388428;stroke-opacity:1;paint-order:markers stroke fill"
         sodipodi:type="star"
         inkscape:transform-center-x="-6.0531838" />
      <path
         inkscape:transform-center-x="-4.1332331"
         sodipodi:type="star"
         style="opacity:1;fill:#e7726a;fill-opacity:1;stroke:none;stroke-width:3.17499995;stroke-linecap:butt;stroke-linejoin:miter;stroke-miterlimit:4;stroke-dasharray:none;stroke-dashoffset:29.54388428;stroke-opacity:1;paint-order:markers stroke fill"
         id="path4640"
         sodipodi:sides="3"
         sodipodi:cx="188.23215"
         sodipodi:cy="168.4881"
         sodipodi:r1="34.542969"
         sodipodi:r2="17.271484"
         sodipodi:arg1="0.52359878"
         sodipodi:arg2="1.5707963"
         inkscape:flatsided="true"
         inkscape:rounded="0"
         inkscape:randomized="0"
         d="m 218.14724,185.75958 -59.83018,0 29.91509,-51.81445 z"
         inkscape:transform-center-y="-3.2998964"
         transform="matrix(0.03235479,0.03853837,-0.53465883,0.44887146,158.42244,132.93362)" />
      <path
         transform="matrix(-0.03235479,0.03853837,0.53465883,0.44887146,-27.945305,111.95594)"
         inkscape:transform-center-y="-3.2998964"
         d="m 218.14724,185.75958 -59.83018,0 29.91509,-51.81445 z"
         inkscape:randomized="0"
         inkscape:rounded="0"
         inkscape:flatsided="true"
         sodipodi:arg2="1.5707963"
         sodipodi:arg1="0.52359878"
         sodipodi:r2="17.271484"
         sodipodi:r1="34.542969"
         sodipodi:cy="168.4881"
         sodipodi:cx="188.23215"
         sodipodi:sides="3"
         id="path4642"
         style="opacity:1;fill:#e7726a;fill-opacity:1;stroke:none;stroke-width:3.17499995;stroke-linecap:butt;stroke-linejoin:miter;stroke-miterlimit:4;stroke-dasharray:none;stroke-dashoffset:29.54388428;stroke-opacity:1;paint-order:markers stroke fill"
         sodipodi:type="star"
         inkscape:transform-center-x="4.1332331" />
      <path
         inkscape:transform-center-x="6.0531838"
         sodipodi:type="star"
         style="opacity:1;fill:#e7726a;fill-opacity:1;stroke:none;stroke-width:3.17499995;stroke-linecap:butt;stroke-linejoin:miter;stroke-miterlimit:4;stroke-dasharray:none;stroke-dashoffset:29.54388428;stroke-opacity:1;paint-order:markers stroke fill"
         id="path4644"
         sodipodi:sides="3"
         sodipodi:cx="188.23215"
         sodipodi:cy="168.4881"
         sodipodi:r1="34.542969"
         sodipodi:r2="17.271484"
         sodipodi:arg1="0.52359878"
         sodipodi:arg2="1.5707963"
         inkscape:flatsided="true"
         inkscape:rounded="0"
         inkscape:randomized="0"
         d="m 218.14724,185.75958 -59.83018,0 29.91509,-51.81445 z"
         inkscape:transform-center-y="-4.832761"
         transform="matrix(-0.04738414,0.0564401,0.78301704,0.65737996,-71.800833,105.98196)" />
    </g>
    <g
       id="g4568"
       transform="matrix(0.30478664,-0.02978771,0.02978771,0.30478664,-395.27718,125.854)">
      <ellipse
         style="opacity:1;fill:#ee9892;fill-opacity:1;stroke:none;stroke-width:3.17499995;stroke-linecap:butt;stroke-linejoin:miter;stroke-miterlimit:4;stroke-dasharray:none;stroke-dashoffset:29.54388428;stroke-opacity:1;paint-order:markers stroke fill"
         id="ellipse4550"
         cx="176.70387"
         cy="211.01042"
         rx="45.168152"
         ry="65.20089" />
      <path
         sodipodi:type="star"
         style="opacity:1;fill:#e0473c;fill-opacity:1;stroke:none;stroke-width:3.17499995;stroke-linecap:butt;stroke-linejoin:miter;stroke-miterlimit:4;stroke-dasharray:none;stroke-dashoffset:29.54388428;stroke-opacity:1;paint-order:markers stroke fill"
         id="path4552"
         sodipodi:sides="3"
         sodipodi:cx="188.23215"
         sodipodi:cy="168.4881"
         sodipodi:r1="34.542969"
         sodipodi:r2="17.271484"
         sodipodi:arg1="0.52359878"
         sodipodi:arg2="1.5707963"
         inkscape:flatsided="true"
         inkscape:rounded="0"
         inkscape:randomized="0"
         d="m 218.14724,185.75958 -59.83018,0 29.91509,-51.81445 z"
         inkscape:transform-center-y="-21.990907"
         transform="matrix(0.18355233,0,0,2.5464981,141.73081,-173.12803)" />
      <path
         transform="matrix(0.04738414,0.0564401,-0.78301704,0.65737996,312.16902,124.50279)"
         inkscape:transform-center-y="-4.832761"
         d="m 218.14724,185.75958 -59.83018,0 29.91509,-51.81445 z"
         inkscape:randomized="0"
         inkscape:rounded="0"
         inkscape:flatsided="true"
         sodipodi:arg2="1.5707963"
         sodipodi:arg1="0.52359878"
         sodipodi:r2="17.271484"
         sodipodi:r1="34.542969"
         sodipodi:cy="168.4881"
         sodipodi:cx="188.23215"
         sodipodi:sides="3"
         id="path4554"
         style="opacity:1;fill:#e0473c;fill-opacity:1;stroke:none;stroke-width:3.17499995;stroke-linecap:butt;stroke-linejoin:miter;stroke-miterlimit:4;stroke-dasharray:none;stroke-dashoffset:29.54388428;stroke-opacity:1;paint-order:markers stroke fill"
         sodipodi:type="star"
         inkscape:transform-center-x="-6.0531838" />
      <path
         inkscape:transform-center-x="-4.1332331"
         sodipodi:type="star"
         style="opacity:1;fill:#e0473c;fill-opacity:1;stroke:none;stroke-width:3.17499995;stroke-linecap:butt;stroke-linejoin:miter;stroke-miterlimit:4;stroke-dasharray:none;stroke-dashoffset:29.54388428;stroke-opacity:1;paint-order:markers stroke fill"
         id="path4556"
         sodipodi:sides="3"
         sodipodi:cx="188.23215"
         sodipodi:cy="168.4881"
         sodipodi:r1="34.542969"
         sodipodi:r2="17.271484"
         sodipodi:arg1="0.52359878"
         sodipodi:arg2="1.5707963"
         inkscape:flatsided="true"
         inkscape:rounded="0"
         inkscape:randomized="0"
         d="m 218.14724,185.75958 -59.83018,0 29.91509,-51.81445 z"
         inkscape:transform-center-y="-3.2998964"
         transform="matrix(0.03235479,0.03853837,-0.53465883,0.44887146,269.92542,132.93362)" />
      <path
         transform="matrix(-0.03235479,0.03853837,0.53465883,0.44887146,83.557672,111.95594)"
         inkscape:transform-center-y="-3.2998964"
         d="m 218.14724,185.75958 -59.83018,0 29.91509,-51.81445 z"
         inkscape:randomized="0"
         inkscape:rounded="0"
         inkscape:flatsided="true"
         sodipodi:arg2="1.5707963"
         sodipodi:arg1="0.52359878"
         sodipodi:r2="17.271484"
         sodipodi:r1="34.542969"
         sodipodi:cy="168.4881"
         sodipodi:cx="188.23215"
         sodipodi:sides="3"
         id="path4558"
         style="opacity:1;fill:#e0473c;fill-opacity:1;stroke:none;stroke-width:3.17499995;stroke-linecap:butt;stroke-linejoin:miter;stroke-miterlimit:4;stroke-dasharray:none;stroke-dashoffset:29.54388428;stroke-opacity:1;paint-order:markers stroke fill"
         sodipodi:type="star"
         inkscape:transform-center-x="4.1332331" />
      <path
         inkscape:transform-center-x="6.0531838"
         sodipodi:type="star"
         style="opacity:1;fill:#e0473c;fill-opacity:1;stroke:none;stroke-width:3.17499995;stroke-linecap:butt;stroke-linejoin:miter;stroke-miterlimit:4;stroke-dasharray:none;stroke-dashoffset:29.54388428;stroke-opacity:1;paint-order:markers stroke fill"
         id="path4560"
         sodipodi:sides="3"
         sodipodi:cx="188.23215"
         sodipodi:cy="168.4881"
         sodipodi:r1="34.542969"
         sodipodi:r2="17.271484"
         sodipodi:arg1="0.52359878"
         sodipodi:arg2="1.5707963"
         inkscape:flatsided="true"
         inkscape:rounded="0"
         inkscape:randomized="0"
         d="m 218.14724,185.75958 -59.83018,0 29.91509,-51.81445 z"
         inkscape:transform-center-y="-4.832761"
         transform="matrix(-0.04738414,0.0564401,0.78301704,0.65737996,39.702144,105.98196)" />
    </g>
    <path
       style="fill:#eeab8a;fill-opacity:1;stroke:none;stroke-width:0.99999994px;stroke-linecap:butt;stroke-linejoin:miter;stroke-opacity:1"
       d="m -1015.7148,591.0918 c -127.8251,-12.19099 -165.8804,248.24648 -294.2852,248.57031 -44.0685,0.11114 -101.4277,-84.79883 -101.4277,-84.79883 V 1045.377 H -131.42773 V 790.28906 c 0,0 -56.50212,-188.91657 -135.71485,-196.33984 -106.61104,-9.99085 -121.81274,233.96734 -228.57226,225.71289 -77.38924,-5.98359 -62.08558,-173.9145 -138.57032,-187.14258 C -723.56156,617.07912 -770.41988,797.51697 -860,783.94922 -941.69267,771.5761 -933.46365,598.93629 -1015.7148,591.0918 Z"
       transform="scale(0.26458333)"
       id="path4505"
       inkscape:connector-curvature="0"
       sodipodi:nodetypes="aaccccaaaaa" />
    <g
       id="g4596"
       transform="matrix(0.31155649,0.04519626,-0.04519626,0.31155649,-111.2059,108.44236)">
      <ellipse
         style="opacity:1;fill:#ee9892;fill-opacity:1;stroke:none;stroke-width:3.17499995;stroke-linecap:butt;stroke-linejoin:miter;stroke-miterlimit:4;stroke-dasharray:none;stroke-dashoffset:29.54388428;stroke-opacity:1;paint-order:markers stroke fill"
         id="ellipse4584"
         cx="176.70387"
         cy="211.01042"
         rx="45.168152"
         ry="65.20089" />
      <path
         sodipodi:type="star"
         style="opacity:1;fill:#e0473c;fill-opacity:1;stroke:none;stroke-width:3.17499995;stroke-linecap:butt;stroke-linejoin:miter;stroke-miterlimit:4;stroke-dasharray:none;stroke-dashoffset:29.54388428;stroke-opacity:1;paint-order:markers stroke fill"
         id="path4586"
         sodipodi:sides="3"
         sodipodi:cx="188.23215"
         sodipodi:cy="168.4881"
         sodipodi:r1="34.542969"
         sodipodi:r2="17.271484"
         sodipodi:arg1="0.52359878"
         sodipodi:arg2="1.5707963"
         inkscape:flatsided="true"
         inkscape:rounded="0"
         inkscape:randomized="0"
         d="m 218.14724,185.75958 -59.83018,0 29.91509,-51.81445 z"
         inkscape:transform-center-y="-21.990907"
         transform="matrix(0.18355233,0,0,2.5464981,141.73081,-173.12803)" />
      <path
         transform="matrix(0.04738414,0.0564401,-0.78301704,0.65737996,312.16902,124.50279)"
         inkscape:transform-center-y="-4.832761"
         d="m 218.14724,185.75958 -59.83018,0 29.91509,-51.81445 z"
         inkscape:randomized="0"
         inkscape:rounded="0"
         inkscape:flatsided="true"
         sodipodi:arg2="1.5707963"
         sodipodi:arg1="0.52359878"
         sodipodi:r2="17.271484"
         sodipodi:r1="34.542969"
         sodipodi:cy="168.4881"
         sodipodi:cx="188.23215"
         sodipodi:sides="3"
         id="path4588"
         style="opacity:1;fill:#e0473c;fill-opacity:1;stroke:none;stroke-width:3.17499995;stroke-linecap:butt;stroke-linejoin:miter;stroke-miterlimit:4;stroke-dasharray:none;stroke-dashoffset:29.54388428;stroke-opacity:1;paint-order:markers stroke fill"
         sodipodi:type="star"
         inkscape:transform-center-x="-6.0531838" />
      <path
         inkscape:transform-center-x="-4.1332331"
         sodipodi:type="star"
         style="opacity:1;fill:#e0473c;fill-opacity:1;stroke:none;stroke-width:3.17499995;stroke-linecap:butt;stroke-linejoin:miter;stroke-miterlimit:4;stroke-dasharray:none;stroke-dashoffset:29.54388428;stroke-opacity:1;paint-order:markers stroke fill"
         id="path4590"
         sodipodi:sides="3"
         sodipodi:cx="188.23215"
         sodipodi:cy="168.4881"
         sodipodi:r1="34.542969"
         sodipodi:r2="17.271484"
         sodipodi:arg1="0.52359878"
         sodipodi:arg2="1.5707963"
         inkscape:flatsided="true"
         inkscape:rounded="0"
         inkscape:randomized="0"
         d="m 218.14724,185.75958 -59.83018,0 29.91509,-51.81445 z"
         inkscape:transform-center-y="-3.2998964"
         transform="matrix(0.03235479,0.03853837,-0.53465883,0.44887146,269.92542,132.93362)" />
      <path
         transform="matrix(-0.03235479,0.03853837,0.53465883,0.44887146,83.557672,111.95594)"
         inkscape:transform-center-y="-3.2998964"
         d="m 218.14724,185.75958 -59.83018,0 29.91509,-51.81445 z"
         inkscape:randomized="0"
         inkscape:rounded="0"
         inkscape:flatsided="true"
         sodipodi:arg2="1.5707963"
         sodipodi:arg1="0.52359878"
         sodipodi:r2="17.271484"
         sodipodi:r1="34.542969"
         sodipodi:cy="168.4881"
         sodipodi:cx="188.23215"
         sodipodi:sides="3"
         id="path4592"
         style="opacity:1;fill:#e0473c;fill-opacity:1;stroke:none;stroke-width:3.17499995;stroke-linecap:butt;stroke-linejoin:miter;stroke-miterlimit:4;stroke-dasharray:none;stroke-dashoffset:29.54388428;stroke-opacity:1;paint-order:markers stroke fill"
         sodipodi:type="star"
         inkscape:transform-center-x="4.1332331" />
      <path
         inkscape:transform-center-x="6.0531838"
         sodipodi:type="star"
         style="opacity:1;fill:#e0473c;fill-opacity:1;stroke:none;stroke-width:3.17499995;stroke-linecap:butt;stroke-linejoin:miter;stroke-miterlimit:4;stroke-dasharray:none;stroke-dashoffset:29.54388428;stroke-opacity:1;paint-order:markers stroke fill"
         id="path4594"
         sodipodi:sides="3"
         sodipodi:cx="188.23215"
         sodipodi:cy="168.4881"
         sodipodi:r1="34.542969"
         sodipodi:r2="17.271484"
         sodipodi:arg1="0.52359878"
         sodipodi:arg2="1.5707963"
         inkscape:flatsided="true"
         inkscape:rounded="0"
         inkscape:randomized="0"
         d="m 218.14724,185.75958 -59.83018,0 29.91509,-51.81445 z"
         inkscape:transform-center-y="-4.832761"
         transform="matrix(-0.04738414,0.0564401,0.78301704,0.65737996,39.702144,105.98196)" />
    </g>
    <g
       transform="matrix(0.22146046,0.03212639,-0.03212639,0.22146046,-296.10299,166.94283)"
       id="g4582">
      <ellipse
         ry="65.20089"
         rx="45.168152"
         cy="211.01042"
         cx="176.70387"
         id="ellipse4570"
         style="opacity:1;fill:#ee9892;fill-opacity:1;stroke:none;stroke-width:3.17499995;stroke-linecap:butt;stroke-linejoin:miter;stroke-miterlimit:4;stroke-dasharray:none;stroke-dashoffset:29.54388428;stroke-opacity:1;paint-order:markers stroke fill" />
      <path
         transform="matrix(0.18355233,0,0,2.5464981,141.73081,-173.12803)"
         inkscape:transform-center-y="-21.990907"
         d="m 218.14724,185.75958 -59.83018,0 29.91509,-51.81445 z"
         inkscape:randomized="0"
         inkscape:rounded="0"
         inkscape:flatsided="true"
         sodipodi:arg2="1.5707963"
         sodipodi:arg1="0.52359878"
         sodipodi:r2="17.271484"
         sodipodi:r1="34.542969"
         sodipodi:cy="168.4881"
         sodipodi:cx="188.23215"
         sodipodi:sides="3"
         id="path4572"
         style="opacity:1;fill:#e0473c;fill-opacity:1;stroke:none;stroke-width:3.17499995;stroke-linecap:butt;stroke-linejoin:miter;stroke-miterlimit:4;stroke-dasharray:none;stroke-dashoffset:29.54388428;stroke-opacity:1;paint-order:markers stroke fill"
         sodipodi:type="star" />
      <path
         inkscape:transform-center-x="-6.0531838"
         sodipodi:type="star"
         style="opacity:1;fill:#e0473c;fill-opacity:1;stroke:none;stroke-width:3.17499995;stroke-linecap:butt;stroke-linejoin:miter;stroke-miterlimit:4;stroke-dasharray:none;stroke-dashoffset:29.54388428;stroke-opacity:1;paint-order:markers stroke fill"
         id="path4574"
         sodipodi:sides="3"
         sodipodi:cx="188.23215"
         sodipodi:cy="168.4881"
         sodipodi:r1="34.542969"
         sodipodi:r2="17.271484"
         sodipodi:arg1="0.52359878"
         sodipodi:arg2="1.5707963"
         inkscape:flatsided="true"
         inkscape:rounded="0"
         inkscape:randomized="0"
         d="m 218.14724,185.75958 -59.83018,0 29.91509,-51.81445 z"
         inkscape:transform-center-y="-4.832761"
         transform="matrix(0.04738414,0.0564401,-0.78301704,0.65737996,312.16902,124.50279)" />
      <path
         transform="matrix(0.03235479,0.03853837,-0.53465883,0.44887146,269.92542,132.93362)"
         inkscape:transform-center-y="-3.2998964"
         d="m 218.14724,185.75958 -59.83018,0 29.91509,-51.81445 z"
         inkscape:randomized="0"
         inkscape:rounded="0"
         inkscape:flatsided="true"
         sodipodi:arg2="1.5707963"
         sodipodi:arg1="0.52359878"
         sodipodi:r2="17.271484"
         sodipodi:r1="34.542969"
         sodipodi:cy="168.4881"
         sodipodi:cx="188.23215"
         sodipodi:sides="3"
         id="path4576"
         style="opacity:1;fill:#e0473c;fill-opacity:1;stroke:none;stroke-width:3.17499995;stroke-linecap:butt;stroke-linejoin:miter;stroke-miterlimit:4;stroke-dasharray:none;stroke-dashoffset:29.54388428;stroke-opacity:1;paint-order:markers stroke fill"
         sodipodi:type="star"
         inkscape:transform-center-x="-4.1332331" />
      <path
         inkscape:transform-center-x="4.1332331"
         sodipodi:type="star"
         style="opacity:1;fill:#e0473c;fill-opacity:1;stroke:none;stroke-width:3.17499995;stroke-linecap:butt;stroke-linejoin:miter;stroke-miterlimit:4;stroke-dasharray:none;stroke-dashoffset:29.54388428;stroke-opacity:1;paint-order:markers stroke fill"
         id="path4578"
         sodipodi:sides="3"
         sodipodi:cx="188.23215"
         sodipodi:cy="168.4881"
         sodipodi:r1="34.542969"
         sodipodi:r2="17.271484"
         sodipodi:arg1="0.52359878"
         sodipodi:arg2="1.5707963"
         inkscape:flatsided="true"
         inkscape:rounded="0"
         inkscape:randomized="0"
         d="m 218.14724,185.75958 -59.83018,0 29.91509,-51.81445 z"
         inkscape:transform-center-y="-3.2998964"
         transform="matrix(-0.03235479,0.03853837,0.53465883,0.44887146,83.557672,111.95594)" />
      <path
         transform="matrix(-0.04738414,0.0564401,0.78301704,0.65737996,39.702144,105.98196)"
         inkscape:transform-center-y="-4.832761"
         d="m 218.14724,185.75958 -59.83018,0 29.91509,-51.81445 z"
         inkscape:randomized="0"
         inkscape:rounded="0"
         inkscape:flatsided="true"
         sodipodi:arg2="1.5707963"
         sodipodi:arg1="0.52359878"
         sodipodi:r2="17.271484"
         sodipodi:r1="34.542969"
         sodipodi:cy="168.4881"
         sodipodi:cx="188.23215"
         sodipodi:sides="3"
         id="path4580"
         style="opacity:1;fill:#e0473c;fill-opacity:1;stroke:none;stroke-width:3.17499995;stroke-linecap:butt;stroke-linejoin:miter;stroke-miterlimit:4;stroke-dasharray:none;stroke-dashoffset:29.54388428;stroke-opacity:1;paint-order:markers stroke fill"
         sodipodi:type="star"
         inkscape:transform-center-x="6.0531838" />
    </g>
    <path
       style="fill:#ea827a;fill-opacity:1;stroke:none;stroke-width:0.2761426px;stroke-linecap:butt;stroke-linejoin:miter;stroke-opacity:1"
       d="m -331.10736,208.65459 c -15.34673,0.13791 -42.33288,19.72086 -42.33288,19.72086 v 48.21388 h 338.666654 v -51.90372 c 0,0 -25.181494,-17.25754 -39.309892,-17.26571 -21.301199,-0.0123 -38.069952,23.96876 -59.292362,25.96266 -23.50484,2.20835 -45.63919,-16.8979 -69.2194,-16.08177 -22.366,0.77411 -42.29272,21.15129 -64.63369,19.76309 -22.96183,-1.42679 -40.88005,-28.61597 -63.87843,-28.40929 z"
       id="path4500"
       inkscape:connector-curvature="0"
       sodipodi:nodetypes="accccaaaaa" />
    <path
       style="fill:#923cd2;fill-opacity:1;stroke:none;stroke-width:0.05605857px;stroke-linecap:butt;stroke-linejoin:miter;stroke-opacity:1"
       d="m -312.24806,177.80722 -0.22644,0.1264 -0.0878,-0.0589 -0.006,0.11074 -15.60599,8.70511 10.92932,3.45399 -11.96021,4.00754 -0.12098,9.34187 12.00644,-2.06202 -10.97133,6.63945 0.33681,6.54543 10.07352,0.66723 -10.12729,7.19952 11.44897,1.68806 -0.24593,12.15965 c 3.43987,0.65298 1.07657,0.21782 4.67212,0.15824 l 0.55124,-12.02209 11.56721,0.1783 -9.76893,-8.97542 10.75952,2.74323 0.83118,-6.50132 -11.10181,-10.09681 12.19426,3.92182 0.58643,-9.32428 -12.00091,-5.85821 11.83229,-2.00763 -15.57812,-10.46913 z"
       id="path4515"
       inkscape:connector-curvature="0"
       sodipodi:nodetypes="cccccccccccccccccccccccccccc" />
    <path
       sodipodi:nodetypes="cccccccccccccccccccccccccccc"
       inkscape:connector-curvature="0"
       id="path4520"
       d="m -89.043206,187.29356 -0.170785,0.132 -0.07954,-0.0376 0.0087,0.0919 -11.771019,9.09179 9.422514,1.4939 -9.349984,4.77509 1.05361,7.70442 9.628196,-3.17941 -8.211126,6.8194 1.08523,5.3461 8.374071,-0.6943 -7.447243,7.17621 9.632253,-0.0238 1.298593,10.03921 c 2.912031,0.11285 0.913035,0.0464 3.865249,-0.4465 l -1.030306,-9.96366 9.54321,-1.28113 -9.148953,-6.18194 9.195007,0.92982 -0.118381,-5.45397 -10.384501,-6.94045 10.521459,1.72284 -0.668314,-7.7474 -10.601342,-3.34057 9.491565,-3.11314 -14.115001,-6.69434 z"
       style="fill:#923cd2;fill-opacity:1;stroke:none;stroke-width:0.04665894px;stroke-linecap:butt;stroke-linejoin:miter;stroke-opacity:1" />
    <path
       style="fill:#ab68dd;fill-opacity:1;stroke:none;stroke-width:0.0343683px;stroke-linecap:butt;stroke-linejoin:miter;stroke-opacity:1"
       d="m -202.96549,198.82335 -0.13563,0.083 -0.0552,-0.0339 -7.4e-4,0.068 -9.3473,5.71413 6.77963,1.84873 -7.22876,2.74733 0.15424,5.72571 7.30464,-1.55666 -6.55865,4.33545 0.36633,4.00144 6.18724,0.1625 -6.0279,4.6579 7.0548,0.75425 0.14657,7.45491 c 2.1232,0.31592 0.66482,0.10712 2.86597,-0.0173 l 0.0438,-7.37809 7.09032,-0.17352 -6.20374,-5.25947 6.65823,1.41747 0.35026,-4.00296 -7.04767,-5.91385 7.56596,2.1044 0.13132,-5.72631 -7.49485,-3.29533 7.19928,-1.51909 -9.79892,-6.0325 z"
       id="path4522"
       inkscape:connector-curvature="0"
       sodipodi:nodetypes="cccccccccccccccccccccccccccc" />
    <path
       sodipodi:nodetypes="cccccccccccccccccccccccccccc"
       inkscape:connector-curvature="0"
       id="path4524"
       d="m -133.92453,213.35546 -0.0934,0.0412 -0.0323,-0.0264 -0.006,0.0432 -6.44179,2.83406 4.15702,1.75976 -4.83805,1.12751 -0.39403,3.65828 4.78399,-0.363 -4.54798,2.19612 -0.11079,2.57883 3.92485,0.63537 -4.23782,2.44703 4.42627,1.08665 -0.54754,4.75844 c 1.32448,0.38365 0.41402,0.12534 1.82597,0.23539 l 0.66214,-4.69318 4.52864,0.4991 -3.49717,-3.88154 4.1168,1.47477 0.56711,-2.5182 -3.97817,-4.37067 4.63561,1.99011 0.57593,-3.6341 -4.48796,-2.74215 4.71369,-0.34814 -5.71942,-4.68273 z"
       style="fill:#e3594f;fill-opacity:1;stroke:none;stroke-width:0.02207764px;stroke-linecap:butt;stroke-linejoin:miter;stroke-opacity:1" />
    <path
       style="fill:#e3594f;fill-opacity:1;stroke:none;stroke-width:0.01702174px;stroke-linecap:butt;stroke-linejoin:miter;stroke-opacity:1"
       d="m -49.275829,213.04072 -0.06277,0.0475 -0.02892,-0.0141 0.0032,0.0335 -4.331173,3.26839 3.431116,0.58355 -3.430324,1.7036 0.352808,2.8148 3.525277,-1.12038 -3.023251,2.45402 0.373992,1.95464 3.0576,-0.21898 -2.746049,2.5873 3.51383,0.0308 0.432637,3.66752 c 1.061817,0.0531 0.332874,0.0207 1.411825,-0.14706 l -0.33508,-3.63885 3.486493,-0.42825 -3.312109,-2.29257 3.35042,0.37684 -0.02085,-1.99003 -3.759726,-2.57433 3.831053,0.67156 -0.212035,-2.8289 -3.853572,-1.26202 3.475162,-1.09677 -5.121572,-2.49982 z"
       id="path4526"
       inkscape:connector-curvature="0"
       sodipodi:nodetypes="cccccccccccccccccccccccccccc" />
    <path
       sodipodi:nodetypes="cccccccccccccccccccccccccccc"
       inkscape:connector-curvature="0"
       id="path4528"
       d="m -355.86343,205.67194 -0.074,0.046 -0.0304,-0.0185 -2e-4,0.0372 -5.10251,3.16579 3.72259,0.98871 -3.95208,1.532 0.1053,3.13767 3.998,-0.87967 -3.57905,2.40002 0.21529,2.19185 3.39179,0.0666 -3.28697,2.57483 3.86943,0.38785 0.1074,4.08549 c 1.16486,0.16547 0.36477,0.0563 1.57077,-0.0199 l -0.003,-4.04406 3.88553,-0.1208 -3.41931,-2.8602 3.65448,0.75277 0.17755,-2.19527 -3.88424,-3.21581 4.15451,1.12599 0.0513,-3.13904 -4.11984,-1.77899 3.94038,-0.85871 -5.39261,-3.27086 z"
       style="fill:#e3594f;fill-opacity:1;stroke:none;stroke-width:0.01883754px;stroke-linecap:butt;stroke-linejoin:miter;stroke-opacity:1" />
    <path
       style="opacity:1;fill:#d95e75;fill-opacity:1;stroke:none;stroke-width:2.65484786;stroke-linecap:butt;stroke-linejoin:miter;stroke-miterlimit:4;stroke-dasharray:none;stroke-dashoffset:29.54388428;stroke-opacity:1;paint-order:markers stroke fill"
       d="m -339.88002,230.61974 a 77.107567,40.40051 3.059148 0 0 -33.56022,4.35672 v 41.61287 h 338.666654 v -39.06199 a 40.351674,77.200887 87.827026 0 0 -45.37656,-4.6483 40.351674,77.200887 87.827026 0 0 -53.225694,15.38437 40.302879,98.6501 89.814545 0 0 -64.74333,-9.4628 40.302879,98.6501 89.814545 0 0 -71.09384,12.9726 77.107567,40.40051 3.059148 0 0 -57.52724,-20.58765 77.107567,40.40051 3.059148 0 0 -13.13977,-0.56582 z"
       id="path4490"
       inkscape:connector-curvature="0" />
    <path
       style="fill:#923cd2;fill-opacity:1;stroke:none;stroke-width:0.15317979px;stroke-linecap:butt;stroke-linejoin:miter;stroke-opacity:1"
       d="m -361.4673,233.04139 -2.1536,-8.92451 4.12999,4.30999 -0.24465,-9.9774 2.31589,9.23009 3.59979,-11.00036 0.72959,10.81682 5.95995,-9.43304 -4.21055,14.49793 z"
       id="path4530"
       inkscape:connector-curvature="0" />
    <path
       inkscape:connector-curvature="0"
       id="path4532"
       d="m -208.61948,241.68899 -2.1536,-8.92451 4.12999,4.30999 -0.24465,-9.9774 2.31589,9.23009 3.59979,-11.00036 0.72959,10.81682 5.95995,-9.43304 -4.21055,14.49793 z"
       style="fill:#923cd2;fill-opacity:1;stroke:none;stroke-width:0.15317979px;stroke-linecap:butt;stroke-linejoin:miter;stroke-opacity:1" />
    <path
       style="fill:#923cd2;fill-opacity:1;stroke:none;stroke-width:0.17600128px;stroke-linecap:butt;stroke-linejoin:miter;stroke-opacity:1"
       d="m -144.79863,248.68155 -2.47445,-10.25413 4.7453,4.95212 -0.2811,-11.46389 2.66092,10.60524 4.1361,-12.63925 0.83829,12.42836 6.8479,-10.83842 -4.83786,16.65791 z"
       id="path4534"
       inkscape:connector-curvature="0" />
    <path
       inkscape:connector-curvature="0"
       id="path4536"
       d="m -51.210079,236.01935 -1.379965,-5.71858 2.646385,2.76173 -0.156766,-6.39325 1.483956,5.91439 2.306642,-7.04873 0.467503,6.93112 3.818973,-6.04443 -2.698003,9.28987 z"
       style="fill:#923cd2;fill-opacity:1;stroke:none;stroke-width:0.09815334px;stroke-linecap:butt;stroke-linejoin:miter;stroke-opacity:1" />
    <path
       style="fill:#ffffff;fill-opacity:0.35294118;stroke:none;stroke-width:0.13351801px;stroke-linecap:butt;stroke-linejoin:miter;stroke-opacity:1"
       d="m -332.69658,117.4844 c 0,0 22.35801,-20.619835 47.80766,-13.32298 8.86225,2.54097 1.91205,9.77326 10.7034,12.48153 47.23293,14.55056 56.05039,-21.439717 100.53928,-18.371681 31.87293,2.198011 103.164006,25.243531 103.164006,25.243531 0,0 -68.076036,-15.40402 -97.492996,-16.26806 -51.75004,-1.51999 -71.52016,41.58717 -124.8379,19.91435 -8.59946,-3.49555 8.34246,-7.6498 0.0905,-11.35959 -14.22616,-6.39554 -39.97393,1.6829 -39.97393,1.6829 z"
       id="path4648"
       inkscape:connector-curvature="0"
       sodipodi:nodetypes="caaacaaac" />
    <path
       sodipodi:nodetypes="caaacaaac"
       inkscape:connector-curvature="0"
       id="path4650"
       d="m -231.4027,177.37765 c 0,0 32.43112,-13.974 43.5636,-9.02894 3.87661,1.72201 -6.89408,6.62331 -3.2057,8.4587 19.81644,9.86087 55.9514,-14.52964 83.53042,-12.45044 19.758285,1.48959 48.760184,17.10747 48.760184,17.10747 0,0 -33.226559,-10.43926 -52.438294,-11.02482 -33.79712,-1.03009 -83.31853,28.18351 -101.29026,13.4959 -2.89859,-2.36893 12.0641,-5.18425 9.58049,-7.69836 -4.28164,-4.33424 -28.50046,1.14049 -28.50046,1.14049 z"
       style="fill:#ffffff;fill-opacity:0.35294118;stroke:none;stroke-width:0.09048477px;stroke-linecap:butt;stroke-linejoin:miter;stroke-opacity:1" />
    <path
       style="fill:#ffffff;fill-opacity:0.35294118;stroke:none;stroke-width:0.06179595px;stroke-linecap:butt;stroke-linejoin:miter;stroke-opacity:1"
       d="m -356.51283,198.1557 c 0,0 22.14861,-9.54345 29.75146,-6.16625 2.64751,1.17603 -4.70826,4.52334 -2.18931,5.77681 13.5335,6.73441 38.21162,-9.92292 57.04652,-8.50295 13.49378,1.01731 33.30043,11.68343 33.30043,11.68343 0,0 -22.69185,-7.12942 -35.81237,-7.52932 -23.08151,-0.7035 -56.90181,19.24773 -69.17548,9.21693 -1.97957,-1.61785 8.2391,-3.54055 6.54293,-5.25754 -2.92411,-2.96004 -19.46419,0.77889 -19.46419,0.77889 z"
       id="path4652"
       inkscape:connector-curvature="0"
       sodipodi:nodetypes="caaacaaac" />
  </g>
</svg>
